<?xml version="1.0" standalone="no"?>
<!DOCTYPE svg PUBLIC "-//W3C//DTD SVG 20010904//EN"
 "http://www.w3.org/TR/2001/REC-SVG-20010904/DTD/svg10.dtd">
<svg version="1.0" xmlns="http://www.w3.org/2000/svg"
 width="372.000000pt" height="253.000000pt" viewBox="0 0 372.000000 253.000000"
 preserveAspectRatio="xMidYMid meet">

<g transform="translate(0.000000,253.000000) scale(0.100000,-0.100000)"
fill="#000000" stroke="none">
<path d="M2574 2114 c-27 -41 -108 -283 -198 -597 -93 -322 -120 -397 -138
-379 -6 6 -21 104 -34 219 -23 203 -47 340 -65 376 -6 9 -20 17 -33 17 -19 0
-28 -11 -46 -52 -34 -78 -75 -256 -115 -492 -19 -115 -38 -212 -41 -215 -4 -3
-5 219 -3 494 4 452 2 500 -12 503 -18 3 -24 -81 -35 -575 l-7 -272 -66 -34
c-87 -45 -117 -52 -147 -32 -17 11 -24 25 -24 49 0 32 1 34 48 40 87 11 111
58 38 71 -55 11 -106 -19 -136 -80 -30 -58 -69 -86 -94 -66 -12 10 -16 31 -16
77 0 49 -3 64 -14 64 -8 0 -17 -4 -21 -9 -3 -5 -18 -6 -33 -2 -43 11 -70 2
-106 -34 -37 -36 -53 -93 -37 -124 25 -46 100 -33 137 25 l17 25 19 -32 c18
-29 22 -31 60 -26 23 3 50 15 61 26 l21 21 26 -32 c22 -27 33 -31 71 -31 44 0
127 32 177 69 l22 16 0 -74 c0 -122 11 -196 29 -203 32 -12 47 31 80 221 43
248 107 573 120 607 6 15 15 27 19 27 12 0 48 -227 67 -430 9 -91 18 -173 21
-182 4 -12 15 -18 34 -18 47 0 72 59 175 410 75 256 174 560 182 560 9 0 -4
-140 -47 -535 -78 -700 -97 -999 -65 -1025 24 -20 54 -1 81 51 14 28 68 149
120 270 52 121 106 238 120 260 l25 40 20 -25 c26 -33 59 -33 98 -1 l30 26 3
-28 c6 -50 36 -35 62 30 28 67 52 107 66 107 6 0 9 -30 8 -70 -2 -55 1 -74 15
-87 23 -24 65 -8 94 36 35 51 28 70 -8 22 -41 -58 -54 -49 -54 35 0 38 -4 75
-8 82 -17 25 -59 13 -98 -28 l-38 -39 -3 27 c-2 16 -10 28 -20 30 -15 3 -18
-4 -18 -40 0 -36 -6 -50 -30 -73 -45 -43 -64 -27 -68 54 -2 52 -6 62 -20 59
-10 -2 -19 -16 -22 -39 -4 -19 -18 -51 -32 -70 -36 -48 -113 -197 -203 -391
-68 -147 -95 -192 -95 -159 0 77 43 521 95 981 20 173 39 379 42 458 6 140 6
142 -15 142 -12 0 -29 -11 -38 -26z m-889 -914 c-3 -5 -15 -10 -26 -10 -11 0
-17 5 -14 10 3 6 15 10 26 10 11 0 17 -4 14 -10z m-311 -6 c22 -9 20 -28 -9
-74 -31 -49 -58 -65 -75 -45 -17 20 4 79 37 105 29 23 26 22 47 14z"/>
<path d="M707 1949 c-44 -10 -114 -37 -158 -60 -103 -54 -185 -142 -151 -163
12 -7 28 6 45 40 51 99 247 184 425 184 90 0 140 -15 165 -50 19 -27 13 -48
-24 -93 -51 -62 -361 -279 -376 -263 -3 2 -7 64 -10 138 -3 73 -7 135 -9 137
-2 2 -10 1 -19 -2 -13 -5 -15 -31 -15 -161 l0 -155 -30 -18 c-40 -23 -40 -53
0 -53 l30 0 2 -182 c3 -165 5 -183 21 -186 16 -3 17 10 17 160 0 90 3 174 7
187 6 23 9 23 74 18 152 -13 281 -60 358 -132 47 -44 79 -104 67 -124 -3 -5
-23 -12 -43 -15 -77 -14 -231 -61 -337 -103 -297 -119 -462 -282 -424 -421 42
-156 281 -182 497 -53 181 107 332 315 361 495 7 42 17 79 21 82 13 8 11 24
-3 24 -7 0 -26 26 -43 57 -59 112 -220 193 -415 209 -96 8 -110 12 -110 33 0
13 29 36 93 74 187 112 333 229 357 287 20 49 6 78 -53 106 -44 20 -67 24
-147 23 -58 0 -126 -8 -173 -20z m430 -825 c16 -42 -42 -193 -117 -303 -114
-169 -319 -300 -470 -301 -194 0 -224 197 -53 349 103 92 295 184 502 241 126
34 130 34 138 14z"/>
<path d="M2843 1305 c-3 -9 -3 -19 1 -22 7 -7 36 16 36 28 0 15 -30 10 -37 -6z"/>
</g>
</svg>
